<svg width="126" height="32" viewBox="0 0 126 32" fill="none" xmlns="http://www.w3.org/2000/svg">
<path d="M79.3895 30.4865C80.4571 30.5025 81.3338 29.5979 81.3297 28.4921C81.3257 27.3547 80.4072 26.5192 79.4138 26.5079C78.3707 26.4958 77.4611 27.3952 77.4598 28.4918C77.4587 29.5811 78.3251 30.4989 79.3895 30.4865ZM88 27.6624L87.5434 29.3311L82.6995 29.3294C82.6995 29.3294 82.6818 29.3774 82.6708 29.4126C82.5698 29.734 82.4503 30.0456 82.277 30.3335C81.9379 30.8966 81.4855 31.3321 80.9129 31.623C80.6898 31.7363 80.4547 31.8436 80.2136 31.8946C79.8952 31.9617 79.5633 32.0147 79.2413 31.9963C78.3069 31.9429 77.5089 31.5572 76.8732 30.8299C76.4681 30.3666 76.2085 29.8244 76.0782 29.2159C75.9918 28.8119 75.9737 28.3987 76.0405 27.9921C76.2182 26.9088 76.7559 26.0706 77.6604 25.4946C77.9878 25.2862 78.343 25.1453 78.7168 25.0662C79.0116 25.004 79.311 24.9875 79.615 25.0089C80.051 25.0396 80.4643 25.1466 80.8554 25.3425C81.6275 25.7297 82.1815 26.3391 82.5226 27.1568C82.5794 27.2928 82.6222 27.4355 82.6634 27.5776C82.6816 27.6403 82.6995 27.6629 82.6995 27.6629L88 27.6624Z" fill="#FF774A"/>
<path fill-rule="evenodd" clip-rule="evenodd" d="M9.1421 3.31303V18.9673H5.37959V3.31303H0V0H14.4959V3.31303H9.1421ZM65.3778 18.9672H69.1885V0.0138719H65.3778V7.79755H57.2517V0.0138719H53.4409V18.9672H57.2517V11.1583H65.3778V18.9672ZM77.7699 9.03584C79.51 9.03584 80.7216 10.5269 80.7216 12.3965C80.7216 14.2668 79.51 15.7327 77.7699 15.7327C75.9774 15.7327 74.8169 14.2668 74.8169 12.3965C74.8169 10.5269 75.9774 9.03584 77.7699 9.03584ZM77.7699 5.82631C73.9333 5.82631 71.1826 8.70734 71.1826 12.3965C71.1826 16.0612 73.9333 18.9674 77.7699 18.9674C81.5798 18.9674 84.3559 16.0612 84.3559 12.3965C84.3559 8.70734 81.5798 5.82631 77.7699 5.82631ZM106.211 10.6782V18.9674H102.526V11.1333C102.526 9.89462 101.946 9.28837 100.684 9.28837C99.3721 9.28837 98.11 10.0718 98.11 11.3858V18.9674H94.4256V11.1333C94.4256 9.89462 93.8454 9.28837 92.6086 9.28837C91.2964 9.28837 90.0089 10.0718 90.0089 11.3858V18.9674H86.3247V6.33198H89.6303L89.8074 7.67122C90.6909 6.68525 92.1795 6.07884 93.6433 6.07884C95.3845 6.07884 96.5204 6.81167 97.3281 8.05032C98.3116 6.83704 100.028 6.07884 101.744 6.07884C104.596 6.07884 106.211 7.7472 106.211 10.6782ZM117.24 10.9815H112.167C112.47 9.59163 113.253 8.68148 114.767 8.68148C116.23 8.68148 116.987 9.51566 117.24 10.9815ZM112.092 13.458H120.647C120.698 13.0789 120.723 12.7252 120.723 12.3713C120.723 8.37835 118.477 5.80107 114.818 5.80107C110.78 5.80107 108.432 8.65672 108.432 12.3967C108.432 16.1619 111.057 18.9669 114.792 18.9669C118.25 18.9669 120.142 16.9707 120.571 14.6461H117.644C117.038 15.8086 115.827 16.1366 114.893 16.1366C113.379 16.1366 112.294 15.1258 112.092 13.458ZM17.8942 12.8977C17.8942 10.0144 19.5356 8.92704 22.642 8.92704V6.06955C19.8131 6.06955 18.2476 7.20747 17.8942 8.26942V6.32208H14.2065V18.967H17.8942V12.8977ZM36.9676 18.7143H33.6843L33.482 17.222C32.5221 18.3098 30.9313 18.9674 29.4157 18.9674C26.6126 18.9674 24.668 16.8935 24.668 14.0354V6.0693H28.3557V13.5803C28.3557 14.8954 29.1382 15.7302 30.4768 15.7302C31.8912 15.7302 33.3057 14.8954 33.3057 13.5803V6.0693H36.9676V18.7143ZM47.7388 10.9757H42.6626C42.9659 9.58467 43.749 8.67405 45.264 8.67405C46.7289 8.67405 47.486 9.50869 47.7388 10.9757ZM42.5867 13.4541H51.1486C51.1991 13.075 51.2238 12.7205 51.2238 12.3668C51.2238 8.37077 48.9764 5.79118 45.3145 5.79118C41.274 5.79118 38.9248 8.64868 38.9248 12.3922C38.9248 16.1597 41.5509 18.967 45.2892 18.967C48.7494 18.967 50.643 16.9691 51.0727 14.6426H48.1428C47.5367 15.8059 46.3245 16.1349 45.3902 16.1349C43.8748 16.1349 42.789 15.1229 42.5867 13.4541ZM124.69 17.158C124.69 17.0302 124.612 16.9396 124.513 16.9396H124.222V17.3676H124.513C124.612 17.3676 124.69 17.2852 124.69 17.158ZM124.694 18.1281L124.361 17.5942H124.222V18.1281H123.93V16.6894H124.53C124.764 16.6894 124.952 16.9149 124.952 17.158C124.952 17.347 124.825 17.5325 124.649 17.5731L125.019 18.1281H124.694ZM125.684 17.417C125.684 16.7094 125.125 16.1502 124.419 16.1502C123.713 16.1502 123.154 16.7094 123.154 17.417C123.154 18.1246 123.713 18.6792 124.419 18.6792C125.125 18.6792 125.684 18.1246 125.684 17.417ZM126 17.417C126 18.2889 125.29 19 124.419 19C123.549 19 122.838 18.2889 122.838 17.417C122.838 16.5451 123.549 15.8335 124.419 15.8335C125.29 15.8335 126 16.5451 126 17.417ZM109.856 30.383C110.531 30.383 111.194 29.9229 111.194 28.9973C111.194 28.0716 110.531 27.6117 109.856 27.6117C109.187 27.6117 108.523 28.0716 108.523 28.9973C108.523 29.9229 109.187 30.383 109.856 30.383ZM109.856 27C110.902 27 111.886 27.7415 111.886 28.9973C111.886 30.2585 110.902 31 109.856 31C108.81 31 107.832 30.2585 107.832 28.9973C107.832 27.7415 108.81 27 109.856 27ZM104.548 27.081V30.9188H107.05V30.3018H105.223V27.081H104.548ZM95.2809 30.4274C95.7134 30.4274 96.009 30.1955 96.009 29.832C96.009 29.4736 95.7736 29.2206 95.3029 29.2206H94.5365V30.4274H95.2809ZM95.2044 28.7781C95.6367 28.7781 95.8941 28.5304 95.8941 28.1825C95.8941 27.8295 95.6258 27.5976 95.1824 27.5976H94.5365V28.7781H95.2044ZM95.2645 27.1445C96.0036 27.1445 96.436 27.5661 96.436 28.1562C96.436 28.5567 96.1952 28.8413 95.8557 28.9625C96.2991 29.0678 96.5564 29.4473 96.5564 29.8635C96.5564 30.4537 96.0692 30.8805 95.3576 30.8805H94V27.1445H95.2645ZM97.3772 27.1445H98.0233L99.0305 28.8096L100.038 27.1445H100.651L99.2824 29.2839V30.8805H98.7458V29.2839L97.3772 27.1445ZM113.162 27.081V30.9188H113.837V29.3707H115.456V28.7699H113.837V27.6927H115.642V27.081H113.162ZM118.701 27.6927V30.9188H118.026V27.6927H116.733V27.081H120V27.6927H118.701Z" fill="#0361E4"/>
</svg>
